name rise43.5482peak65.4966fall89.1036.mot
datacolumns 19
datarows 23
range 20.33325300000000 20.36993800000000
endheader
time	ground_force1_vx	ground_force1_vy	ground_force1_vz	ground_force1_px	ground_force1_py	ground_force1_pz	ground_force2_vx	ground_force2_vy	ground_force2_vz	ground_force2_px	ground_force2_py	ground_force2_pz	ground_torque1_x	ground_torque1_y	ground_torque1_z	ground_torque2_x	ground_torque2_y	ground_torque2_z	
20.33325300000000	-5.63737600000000	40.05626500000000	-5.96783900000000	0.30292500000000	0.00000000000000	0.12474400000000	-58.07169900000000	784.32280100000003	-39.71038000000000	0.10160500000000	0.00000000000000	-0.04740900000000	0.00000000000000	-3.13375600000000	0.00000000000000	0.00000000000000	-11.74368100000000	0.00000000000000	
20.33492000000000	-6.19875700000000	46.77866300000000	-6.61618300000000	0.30642500000000	0.00000000000000	0.12557100000000	-59.12165500000000	781.64074300000004	-39.43240700000000	0.10047900000000	0.00000000000000	-0.04735300000000	0.00000000000000	-3.50744000000000	0.00000000000000	0.00000000000000	-11.72360900000000	0.00000000000000	
20.33658600000000	-6.65577600000000	53.54365300000000	-7.17113600000000	0.30971100000000	0.00000000000000	0.12632100000000	-60.17441300000000	778.80902700000001	-39.14369000000000	0.09935800000000	0.00000000000000	-0.04729600000000	0.00000000000000	-3.83948300000000	0.00000000000000	0.00000000000000	-11.70490100000000	0.00000000000000	
20.33824800000000	-6.99225000000000	60.26179700000000	-7.61671300000000	0.31281300000000	0.00000000000000	0.12700400000000	-61.22850400000000	775.82357999999999	-38.84392700000000	0.09824300000000	0.00000000000000	-0.04723800000000	0.00000000000000	-4.12110100000000	0.00000000000000	0.00000000000000	-11.68740900000000	0.00000000000000	
20.33992000000000	-7.19805300000000	66.86703500000000	-7.94299000000000	0.31575300000000	0.00000000000000	0.12762900000000	-62.28236700000000	772.68036900000004	-38.53282600000000	0.09713400000000	0.00000000000000	-0.04717800000000	0.00000000000000	-4.34659900000000	0.00000000000000	0.00000000000000	-11.67097500000000	0.00000000000000	
20.34158700000000	-7.26907200000000	73.31859100000000	-8.14607300000000	0.31855100000000	0.00000000000000	0.12820400000000	-63.33435700000000	769.37541799999997	-38.21010300000000	0.09603300000000	0.00000000000000	-0.04711800000000	0.00000000000000	-4.51341200000000	0.00000000000000	0.00000000000000	-11.65542700000000	0.00000000000000	
20.34325600000000	-7.20668400000000	79.60048200000000	-8.22758200000000	0.32122200000000	0.00000000000000	0.12873300000000	-64.38274400000000	765.90482299999996	-37.87548000000000	0.09493900000000	0.00000000000000	-0.04705500000000	0.00000000000000	-4.62189000000000	0.00000000000000	0.00000000000000	-11.64058600000000	0.00000000000000	
20.34492100000000	-7.01687700000000	85.71907299999999	-8.19376600000000	0.32378000000000	0.00000000000000	0.12922300000000	-65.42571400000000	762.26476300000002	-37.52869500000000	0.09385400000000	0.00000000000000	-0.04699100000000	0.00000000000000	-4.67487700000000	0.00000000000000	0.00000000000000	-11.62625900000000	0.00000000000000	
20.34658700000000	-6.70914400000000	91.69921900000000	-8.05439500000000	0.32623500000000	0.00000000000000	0.12967800000000	-66.46137700000000	758.45152099999996	-37.16949800000000	0.09277800000000	0.00000000000000	-0.04692600000000	0.00000000000000	-4.67715400000000	0.00000000000000	0.00000000000000	-11.61224800000000	0.00000000000000	
20.34825300000000	-6.29529700000000	97.57955300000000	-7.82155400000000	0.32859400000000	0.00000000000000	0.13010000000000	-67.48776800000000	754.46149700000001	-36.79765600000000	0.09171100000000	0.00000000000000	-0.04685900000000	0.00000000000000	-4.63482100000000	0.00000000000000	0.00000000000000	-11.59834400000000	0.00000000000000	
20.34991400000000	-5.78828700000000	103.40747600000000	-7.50845700000000	0.33086700000000	0.00000000000000	0.13049300000000	-68.50285000000000	750.29122400000006	-36.41295500000000	0.09065500000000	0.00000000000000	-0.04679000000000	0.00000000000000	-4.55467000000000	0.00000000000000	0.00000000000000	-11.58433100000000	0.00000000000000	
20.35158500000000	-5.20115000000000	109.23427900000000	-7.12837300000000	0.33305800000000	0.00000000000000	0.13086100000000	-69.50452400000000	745.93739000000005	-36.01520200000000	0.08960900000000	0.00000000000000	-0.04671900000000	0.00000000000000	-4.44360700000000	0.00000000000000	0.00000000000000	-11.56998500000000	0.00000000000000	
20.35324700000000	-4.54612600000000	115.11079900000000	-6.69373000000000	0.33517200000000	0.00000000000000	0.13120400000000	-70.49062700000000	741.39685199999997	-35.60422400000000	0.08857500000000	0.00000000000000	-0.04664600000000	0.00000000000000	-4.30816700000000	0.00000000000000	0.00000000000000	-11.55507800000000	0.00000000000000	
20.35491500000000	-3.83399500000000	121.08382600000000	-6.21544300000000	0.33721400000000	0.00000000000000	0.13152500000000	-71.45894100000000	736.66665599999999	-35.17987600000000	0.08755200000000	0.00000000000000	-0.04657200000000	0.00000000000000	-4.15413000000000	0.00000000000000	0.00000000000000	-11.53937400000000	0.00000000000000	
20.35658500000000	-3.07364400000000	127.19343100000000	-5.70246700000000	0.33918600000000	0.00000000000000	0.13182600000000	-72.40720000000000	731.74405700000000	-34.74203800000000	0.08654200000000	0.00000000000000	-0.04649500000000	0.00000000000000	-3.98626400000000	0.00000000000000	0.00000000000000	-11.52263400000000	0.00000000000000	
20.35825200000000	-2.27185700000000	133.47123900000000	-5.16158000000000	0.34109100000000	0.00000000000000	0.13210900000000	-73.33309300000001	726.62653599999999	-34.29062100000000	0.08554500000000	0.00000000000000	-0.04641600000000	0.00000000000000	-3.80819200000000	0.00000000000000	0.00000000000000	-11.50461600000000	0.00000000000000	
20.35992100000000	-1.43330500000000	139.93962200000001	-4.59737000000000	0.34293200000000	0.00000000000000	0.13237400000000	-74.23427500000000	721.31182100000001	-33.82556200000000	0.08456000000000	0.00000000000000	-0.04633500000000	0.00000000000000	-3.62235800000000	0.00000000000000	0.00000000000000	-11.48507400000000	0.00000000000000	
20.36158800000000	-0.56069600000000	146.61169000000001	-4.01238500000000	0.34470900000000	0.00000000000000	0.13262300000000	-75.10836600000000	715.79790600000001	-33.34683400000000	0.08358900000000	0.00000000000000	-0.04625200000000	0.00000000000000	-3.43009500000000	0.00000000000000	0.00000000000000	-11.46376200000000	0.00000000000000	
20.36325300000000	0.34494600000000	153.49195700000001	-3.40740700000000	0.34642400000000	0.00000000000000	0.13285600000000	-75.95296600000000	710.08306700000003	-32.85444200000000	0.08263200000000	0.00000000000000	-0.04616600000000	0.00000000000000	-3.23176600000000	0.00000000000000	0.00000000000000	-11.44043100000000	0.00000000000000	
20.36491700000000	1.28393200000000	160.57748200000000	-2.78181400000000	0.34807800000000	0.00000000000000	0.13307600000000	-76.76565700000000	704.16588200000001	-32.34842600000000	0.08168900000000	0.00000000000000	-0.04607800000000	0.00000000000000	-3.02694200000000	0.00000000000000	0.00000000000000	-11.41483300000000	0.00000000000000	
20.36658200000000	2.25750900000000	167.85933299999999	-2.13397600000000	0.34967100000000	0.00000000000000	0.13328200000000	-77.54401300000001	698.04524300000003	-31.82886200000000	0.08075900000000	0.00000000000000	-0.04598800000000	0.00000000000000	-2.81462100000000	0.00000000000000	0.00000000000000	-11.38672300000000	0.00000000000000	
20.36825200000000	3.26746700000000	175.32418899999999	-1.46165300000000	0.35120400000000	0.00000000000000	0.13347600000000	-78.28560500000000	691.72037599999999	-31.29586600000000	0.07984400000000	0.00000000000000	-0.04589500000000	0.00000000000000	-2.59343800000000	0.00000000000000	0.00000000000000	-11.35585400000000	0.00000000000000	
20.36993800000000	4.31577600000000	182.95595299999999	-0.76237300000000	0.35267600000000	0.00000000000000	0.13365800000000	-78.98801400000001	685.19084599999996	-30.74958900000000	0.07894400000000	0.00000000000000	-0.04580000000000	0.00000000000000	-2.36187500000000	0.00000000000000	0.00000000000000	-11.32198700000000	0.00000000000000	
